<svg width="61" height="23" viewBox="0 0 61 23" fill="none" xmlns="http://www.w3.org/2000/svg">
<path d="M21.967 19.501H24.6905V20.1207H21.2052V14.3737H21.967V19.501ZM28.0771 20.1207C28.035 20.0365 28.0008 19.8865 27.9745 19.6708C27.635 20.0234 27.2298 20.1997 26.7588 20.1997C26.3378 20.1997 25.9917 20.0813 25.7207 19.8444C25.4523 19.605 25.3181 19.3024 25.3181 18.9366C25.3181 18.4919 25.4865 18.1472 25.8233 17.9024C26.1628 17.6551 26.639 17.5314 27.2522 17.5314H27.9627V17.1959C27.9627 16.9406 27.8863 16.738 27.7337 16.588C27.5811 16.4354 27.3561 16.3591 27.0588 16.3591C26.7983 16.3591 26.5798 16.4249 26.4035 16.5565C26.2272 16.688 26.1391 16.8472 26.1391 17.0341H25.4049C25.4049 16.8209 25.4799 16.6157 25.6299 16.4183C25.7825 16.2183 25.9878 16.0604 26.2457 15.9447C26.5062 15.8289 26.7917 15.771 27.1022 15.771C27.5943 15.771 27.9798 15.8947 28.2587 16.142C28.5376 16.3867 28.6824 16.7249 28.6929 17.1564V19.1221C28.6929 19.5142 28.7429 19.826 28.8429 20.0576V20.1207H28.0771ZM26.8654 19.5642C27.0943 19.5642 27.3114 19.505 27.5166 19.3866C27.7219 19.2681 27.8706 19.1142 27.9627 18.9247V18.0485H27.3903C26.4956 18.0485 26.0483 18.3103 26.0483 18.834C26.0483 19.0629 26.1246 19.2418 26.2772 19.3708C26.4299 19.4997 26.6259 19.5642 26.8654 19.5642ZM30.5283 15.8499L30.552 16.3867C30.8783 15.9762 31.3046 15.771 31.8309 15.771C32.7334 15.771 33.1887 16.2802 33.1966 17.2985V20.1207H32.4663V17.2946C32.4637 16.9867 32.3927 16.7591 32.2532 16.6117C32.1164 16.4644 31.9019 16.3907 31.6098 16.3907C31.373 16.3907 31.1651 16.4538 30.9862 16.5801C30.8072 16.7065 30.6678 16.8722 30.5678 17.0775V20.1207H29.8375V15.8499H30.5283ZM34.1202 17.9498C34.1202 17.2946 34.2755 16.7683 34.586 16.3709C34.8965 15.971 35.303 15.771 35.8056 15.771C36.3056 15.771 36.7016 15.942 36.9937 16.2841V14.0579H37.7239V20.1207H37.0529L37.0174 19.6629C36.7253 20.0207 36.3188 20.1997 35.7977 20.1997C35.303 20.1997 34.8991 19.9971 34.586 19.5918C34.2755 19.1866 34.1202 18.6577 34.1202 18.0051V17.9498ZM34.8504 18.0327C34.8504 18.5169 34.9504 18.8958 35.1504 19.1695C35.3504 19.4431 35.6267 19.58 35.9793 19.58C36.4424 19.58 36.7806 19.3721 36.9937 18.9563V16.9946C36.7753 16.592 36.4398 16.3907 35.9872 16.3907C35.6293 16.3907 35.3504 16.5288 35.1504 16.8051C34.9504 17.0814 34.8504 17.4906 34.8504 18.0327ZM42.6737 17.559C42.0237 17.3722 41.55 17.1433 41.2527 16.8722C40.958 16.5986 40.8106 16.2617 40.8106 15.8618C40.8106 15.4092 40.9909 15.0355 41.3514 14.7408C41.7145 14.4434 42.1855 14.2947 42.7644 14.2947C43.1591 14.2947 43.5104 14.3711 43.8183 14.5237C44.1288 14.6763 44.3683 14.8868 44.5367 15.1552C44.7077 15.4236 44.7933 15.717 44.7933 16.0354H44.0315C44.0315 15.6881 43.9209 15.4157 43.6999 15.2184C43.4789 15.0184 43.167 14.9184 42.7644 14.9184C42.3908 14.9184 42.0987 15.0013 41.8882 15.1671C41.6803 15.3302 41.5763 15.5578 41.5763 15.8499C41.5763 16.0841 41.675 16.2828 41.8724 16.4459C42.0724 16.6065 42.4105 16.7538 42.8868 16.888C43.3657 17.0222 43.7394 17.1709 44.0078 17.334C44.2788 17.4946 44.4788 17.6827 44.6078 17.8985C44.7393 18.1143 44.8051 18.3682 44.8051 18.6603C44.8051 19.126 44.6235 19.4997 44.2604 19.7813C43.8973 20.0602 43.4118 20.1997 42.8039 20.1997C42.4092 20.1997 42.0408 20.1247 41.6987 19.9747C41.3566 19.8221 41.0922 19.6142 40.9053 19.351C40.7211 19.0879 40.629 18.7892 40.629 18.455H41.3908C41.3908 18.8024 41.5185 19.0774 41.7737 19.28C42.0316 19.48 42.375 19.58 42.8039 19.58C43.2039 19.58 43.5104 19.4984 43.7236 19.3352C43.9367 19.1721 44.0433 18.9497 44.0433 18.6682C44.0433 18.3866 43.9446 18.1695 43.7473 18.0169C43.5499 17.8616 43.192 17.709 42.6737 17.559ZM46.3958 16.367C46.7195 15.9697 47.1405 15.771 47.6589 15.771C48.5615 15.771 49.0167 16.2802 49.0246 17.2985V20.1207H48.2944V17.2946C48.2917 16.9867 48.2207 16.7591 48.0812 16.6117C47.9444 16.4644 47.7299 16.3907 47.4378 16.3907C47.201 16.3907 46.9931 16.4538 46.8142 16.5801C46.6353 16.7065 46.4958 16.8722 46.3958 17.0775V20.1207H45.6656V14.0579H46.3958V16.367ZM52.7546 20.1207C52.7125 20.0365 52.6783 19.8865 52.652 19.6708C52.3126 20.0234 51.9073 20.1997 51.4363 20.1997C51.0153 20.1997 50.6692 20.0813 50.3982 19.8444C50.1298 19.605 49.9956 19.3024 49.9956 18.9366C49.9956 18.4919 50.164 18.1472 50.5008 17.9024C50.8403 17.6551 51.3166 17.5314 51.9297 17.5314H52.6402V17.1959C52.6402 16.9406 52.5639 16.738 52.4112 16.588C52.2586 16.4354 52.0336 16.3591 51.7363 16.3591C51.4758 16.3591 51.2574 16.4249 51.0811 16.5565C50.9048 16.688 50.8166 16.8472 50.8166 17.0341H50.0824C50.0824 16.8209 50.1574 16.6157 50.3074 16.4183C50.46 16.2183 50.6653 16.0604 50.9232 15.9447C51.1837 15.8289 51.4692 15.771 51.7797 15.771C52.2718 15.771 52.6573 15.8947 52.9362 16.142C53.2151 16.3867 53.3599 16.7249 53.3704 17.1564V19.1221C53.3704 19.5142 53.4204 19.826 53.5204 20.0576V20.1207H52.7546ZM51.5429 19.5642C51.7718 19.5642 51.9889 19.505 52.1942 19.3866C52.3994 19.2681 52.5481 19.1142 52.6402 18.9247V18.0485H52.0678C51.1732 18.0485 50.7258 18.3103 50.7258 18.834C50.7258 19.0629 50.8021 19.2418 50.9548 19.3708C51.1074 19.4997 51.3034 19.5642 51.5429 19.5642ZM56.5794 16.5051C56.4689 16.4867 56.3492 16.4775 56.2202 16.4775C55.7413 16.4775 55.4163 16.6815 55.2453 17.0893V20.1207H54.5151V15.8499H55.2256L55.2374 16.3433C55.4769 15.9618 55.8163 15.771 56.2558 15.771C56.3979 15.771 56.5057 15.7894 56.5794 15.8262V16.5051ZM58.9477 20.1997C58.3688 20.1997 57.8978 20.0102 57.5346 19.6313C57.1715 19.2497 56.9899 18.7405 56.9899 18.1037V17.9695C56.9899 17.5459 57.0702 17.1683 57.2307 16.8367C57.3939 16.5025 57.6202 16.242 57.9096 16.0552C58.2017 15.8657 58.5175 15.771 58.8569 15.771C59.4122 15.771 59.8437 15.9539 60.1516 16.3196C60.4595 16.6854 60.6134 17.2091 60.6134 17.8906V18.1945H57.7201C57.7307 18.6156 57.853 18.9563 58.0872 19.2168C58.3241 19.4747 58.624 19.6037 58.9872 19.6037C59.2451 19.6037 59.4635 19.551 59.6424 19.4458C59.8213 19.3405 59.9779 19.201 60.1121 19.0274L60.5581 19.3747C60.2003 19.9247 59.6635 20.1997 58.9477 20.1997ZM58.8569 16.3709C58.5622 16.3709 58.3149 16.4788 58.1149 16.6946C57.9149 16.9078 57.7912 17.2077 57.7438 17.5946H59.8832V17.5393C59.8621 17.1683 59.7621 16.8814 59.5832 16.6788C59.4043 16.4736 59.1622 16.3709 58.8569 16.3709Z" fill="black"/>
<path d="M22.6814 11.0656H26.7667V11.9951H21.5387V3.37456H22.6814V11.0656ZM32.942 9.74525H29.3303L28.5192 11.9951H27.3469L30.6388 3.37456H31.6335L34.9313 11.9951H33.765L32.942 9.74525ZM29.6737 8.80977H32.6045L31.1362 4.77777L29.6737 8.80977ZM42.7171 11.9951H41.5744L37.2345 5.35208V11.9951H36.0918V3.37456H37.2345L41.5862 10.0472V3.37456H42.7171V11.9951ZM44.736 11.9951V3.37456H47.1694C47.9194 3.37456 48.5825 3.54034 49.1588 3.8719C49.7351 4.20346 50.1791 4.67514 50.491 5.28695C50.8067 5.89876 50.9666 6.60135 50.9705 7.39472V7.94535C50.9705 8.75846 50.8127 9.47092 50.4969 10.0827C50.1851 10.6945 49.7371 11.1642 49.1529 11.4919C48.5727 11.8195 47.8957 11.9872 47.1221 11.9951H44.736ZM45.8728 4.31003V11.0656H47.0688C47.9451 11.0656 48.6259 10.7932 49.1114 10.2485C49.6009 9.7038 49.8456 8.92819 49.8456 7.92167V7.41841C49.8456 6.43952 49.6147 5.67969 49.1529 5.13893C48.695 4.59423 48.0437 4.31793 47.199 4.31003H45.8728Z" fill="black"/>
<g clip-path="url(#clip0)">
<path d="M3.04488 11.0841C2.85555 11.4021 2.53319 11.5857 2.08509 11.6289V11.908L1.72392 11.9468V11.636C1.2368 11.6091 0.892868 11.4167 0.704943 11.0614C0.0484207 9.82565 1.67708 7.00023 1.74699 6.88089L1.9101 6.60034L2.06039 6.88834C2.75862 8.22719 3.61868 10.1197 3.04488 11.0841Z" fill="#24BC48"/>
<path d="M5.25616 11.6107C5.14059 11.8032 4.94975 11.9181 4.68529 11.9495V12.5211L4.46987 12.5434V12.233C4.44526 12.2315 4.42068 12.23 4.39622 12.227V11.9554C4.10857 11.933 3.90479 11.8122 3.7891 11.5957C3.39309 10.848 4.31001 9.23148 4.41486 9.04946L4.54641 8.82556L4.66641 9.05691C5.08851 9.8674 5.61034 11.0151 5.25616 11.6107Z" fill="#239942"/>
<path d="M15.8193 12.8659C15.8121 12.9301 15.8035 12.9942 15.7934 13.0584C15.7584 13.2971 15.7118 13.533 15.656 13.7643C15.6402 13.8345 15.6228 13.903 15.6025 13.9703C15.5881 14.0304 15.5708 14.0882 15.5534 14.1479C15.4672 14.4448 15.3644 14.7364 15.2455 15.021L14.8539 15.0136L14.0199 14.9971L13.0788 14.9792L9.99291 14.919L9.05049 14.8996L8.40864 14.8876L7.3102 14.1666L6.98492 13.9518L6.81865 13.8428L5.99146 13.2757L6.09993 13.1338L7.39748 11.4555L8.11983 10.4105L9.27616 9.36572L9.9985 9.06726L10.2877 9.21655L11.1548 10.2613L11.5885 11.0071L11.8776 11.4549L12.3112 10.858L12.8894 10.2609L13.323 10.1117L13.7567 10.2609L14.3348 11.1564L15.0571 11.9023L15.4999 12.4605L15.8193 12.8659Z" fill="#0B6C96"/>
<path d="M7.74251 13.8613L5.10314 19.0583L4.9341 19.3911C4.78952 19.33 4.64784 19.2657 4.50908 19.1956C4.4281 19.1569 4.34725 19.115 4.26919 19.0718C4.23422 19.0523 4.19928 19.0344 4.16654 19.015C2.07499 17.8463 0.545713 15.7374 0.113585 13.2419L0.0585938 12.8718C0.167062 12.8434 0.28555 12.8135 0.411262 12.7852C0.844519 12.6868 1.28266 12.6128 1.72372 12.5638V12.2926L2.0849 12.2852V12.5284C2.79898 12.4718 3.591 12.4803 4.39617 12.6195V12.2345L4.68524 12.2286V12.6764C5.12538 12.7678 5.5561 12.9022 5.97159 13.0778C6.04964 12.9525 6.16675 12.7659 6.31564 12.539L6.58884 12.7916C6.48329 12.9513 6.38787 13.1006 6.30551 13.2319C6.62207 13.3876 6.92533 13.5705 7.21206 13.7788C7.29442 13.7187 7.37832 13.6594 7.46358 13.6027L7.74251 13.8613Z" fill="#239942"/>
<path d="M15.6026 13.9703C15.5881 14.0305 15.5709 14.0882 15.5534 14.1479C15.403 14.6687 15.2015 15.1722 14.9522 15.6509C14.9204 15.7151 14.8871 15.7778 14.851 15.8404C14.8264 15.8886 14.7989 15.9344 14.7715 15.9807C14.5114 16.4333 14.2093 16.8586 13.8695 17.2509C13.79 17.3434 13.7077 17.4344 13.6238 17.5225C12.2434 18.9836 10.3398 19.9165 8.22948 19.994C8.13267 19.9986 8.03572 20 7.93891 20C7.91561 20 7.89126 20 7.86807 19.9986C7.35827 19.9954 6.85 19.9408 6.35043 19.8358C6.2753 19.8194 6.20015 19.803 6.12641 19.7852C6.08154 19.7747 6.03681 19.7627 5.99194 19.7508C5.48066 19.6181 4.98378 19.432 4.50893 19.1955C4.42795 19.1568 4.3471 19.115 4.26904 19.0718L4.33696 18.6851L4.50601 17.724L5.22835 16.3807L5.66188 15.6348L6.81821 14.2916L7.077 14.1394L7.41812 13.9379L7.83055 13.6947L8.69784 13.0977L9.99864 12.7992L11.0105 12.6499L12.8896 12.7992L14.3349 13.247L15.2022 13.6947L15.2861 13.753L15.6026 13.9703Z" fill="#24BC48"/>
<path d="M14.851 15.8404C14.8264 15.8885 14.799 15.9344 14.7716 15.9807C14.5114 16.4332 14.2093 16.8586 13.8696 17.2508C13.7901 17.3433 13.7077 17.4344 13.6239 17.5225C12.2435 18.9836 10.3398 19.9165 8.22954 19.994C8.13273 19.9986 8.03578 20 7.93896 20C7.91566 20 7.89131 20 7.86812 19.9986C7.35833 19.9953 6.85006 19.9408 6.35051 19.8358C6.27536 19.8194 6.2002 19.8029 6.12646 19.7851L6.24064 19.5149L6.25799 19.4329L6.52969 18.1716L7.10791 16.6791L8.26425 15.6345L8.98662 15.1867L10.143 14.7389L11.4442 14.4406L12.456 14.5897L13.6123 14.8883L14.3347 15.4853L14.5501 15.633L14.851 15.8404Z" fill="#239942"/>
<path d="M8.11963 19.8134L8.26421 18.7687L8.98692 17.5747L10.1433 16.6792L11.5886 16.3807L12.745 16.8285L13.3232 17.127L13.6123 17.2763L12.745 18.1717L11.2996 19.0672L9.70961 19.6643L8.55327 19.8134H8.11963Z" fill="#24BC48"/>
<path d="M13.1266 5.57805C13.1252 5.57649 13.1238 5.57506 13.1238 5.57348C13.0168 5.47952 12.9069 5.3869 12.7956 5.29679H12.7942C12.7837 5.28665 12.7726 5.27717 12.761 5.2684C12.745 5.25637 12.7292 5.24434 12.7132 5.23111C12.6783 5.21174 12.6424 5.19502 12.6048 5.1789C12.4687 5.12072 12.3241 5.0864 12.177 5.07736C12.1495 5.07592 12.122 5.07435 12.0945 5.07435C12.0209 5.07402 11.9474 5.08054 11.8749 5.09384C12.1003 5.23514 12.3184 5.38858 12.5282 5.55351C12.6561 5.61919 12.7686 5.71293 12.8578 5.82817C12.8997 5.86547 12.9401 5.90131 12.9806 5.94006C13.1367 6.0819 13.2856 6.23107 13.4302 6.38637C14.7282 7.79392 15.5273 9.69818 15.5273 11.7907C15.5273 11.925 15.5244 12.0594 15.5172 12.1936V12.1952C15.5129 12.2847 15.5072 12.3727 15.4999 12.4608C15.4927 12.5414 15.4854 12.622 15.4766 12.7014C15.4444 12.9849 15.3971 13.2664 15.335 13.5446C15.3205 13.6147 15.3032 13.6834 15.2859 13.7521C15.2713 13.8102 15.2555 13.8685 15.2393 13.9252C15.1386 14.2979 15.0098 14.6618 14.854 15.0136C14.7958 15.1509 14.7326 15.2853 14.6647 15.4166C14.6271 15.4897 14.5896 15.5628 14.5505 15.6332C14.5302 15.6706 14.51 15.7079 14.4883 15.7452C14.2321 16.1975 13.9323 16.622 13.5936 17.0123C13.5141 17.1048 13.4305 17.1959 13.345 17.2854C12.034 18.66 10.2373 19.5392 8.24408 19.6193C8.14295 19.6252 8.04171 19.6267 7.93906 19.6267C7.9203 19.6267 7.90154 19.6267 7.88266 19.6252C7.375 19.6229 6.86891 19.567 6.37226 19.4583C6.33463 19.4509 6.2956 19.4418 6.25809 19.4329C6.17653 19.4136 6.09767 19.3941 6.01809 19.3717C5.70694 19.2875 5.40132 19.1828 5.10314 19.0583C4.91965 18.9822 4.73744 18.8971 4.56116 18.8057C4.486 18.7669 4.41085 18.7266 4.33711 18.6854C4.29809 18.6646 4.26045 18.6436 4.22293 18.6212C2.28028 17.4904 0.865176 15.5004 0.466255 13.1541C0.444585 13.0318 0.427224 12.9094 0.411263 12.7855C0.28555 12.8139 0.166597 12.8437 0.0585938 12.8721L0.113586 13.2423C0.545712 15.7377 2.07499 17.8466 4.16654 19.0152C4.19974 19.0346 4.23446 19.0525 4.26919 19.072C4.34724 19.1152 4.4281 19.1571 4.50908 19.1958C4.64784 19.2659 4.78952 19.3302 4.9341 19.3913C5.27793 19.5373 5.63151 19.6575 5.99209 19.751C6.03696 19.763 6.08169 19.7751 6.12656 19.7854C6.2003 19.8032 6.27545 19.8197 6.35058 19.8361C6.85011 19.941 7.35835 19.9955 7.8681 19.9986C7.89141 20 7.91587 20 7.93894 20C8.03575 20 8.1327 19.9986 8.22952 19.994C10.3398 19.9164 12.2434 18.9835 13.6238 17.5225C13.7077 17.4345 13.7901 17.3434 13.8695 17.2509C14.2093 16.8586 14.5114 16.4331 14.7715 15.9805C14.7989 15.9342 14.8264 15.888 14.851 15.8402C14.8871 15.7775 14.9209 15.7149 14.9523 15.6506C15.0592 15.4461 15.1574 15.2357 15.2456 15.0208C15.3644 14.7363 15.467 14.4448 15.5531 14.1479C15.5705 14.0878 15.588 14.03 15.6022 13.9704C15.6225 13.9031 15.6399 13.8345 15.6557 13.7644C15.7121 13.5331 15.7584 13.2972 15.7931 13.0585C15.8032 12.9943 15.8118 12.9301 15.8191 12.866C15.8335 12.769 15.8436 12.6719 15.8524 12.5735C15.8768 12.3152 15.8885 12.0562 15.8885 11.7916C15.8889 9.31068 14.8178 7.08243 13.1266 5.57805Z" fill="#131414"/>
<path d="M12.9967 6.08828C12.9944 6.03874 12.9891 5.98939 12.9807 5.94055C12.9462 5.71141 12.8557 5.49515 12.7178 5.31221C12.7104 5.30174 12.7018 5.28984 12.6932 5.27937C12.6917 5.27792 12.6903 5.27636 12.6903 5.27492C12.6628 5.24208 12.6353 5.20923 12.605 5.1794C12.5138 5.08538 12.4095 5.00591 12.2957 4.9436C12.2949 4.94273 12.2939 4.94217 12.2928 4.94204C12.2898 4.93759 12.2841 4.93614 12.2797 4.93314C12.0888 4.83007 11.8765 4.7764 11.661 4.77674C11.5874 4.77643 11.5139 4.78291 11.4414 4.79611C11.1899 4.83942 10.9556 4.95611 10.7662 5.13242C10.5768 5.30873 10.4402 5.53731 10.3725 5.79117C10.3047 6.04504 10.3088 6.31362 10.384 6.56519C10.4593 6.81677 10.6027 7.04086 10.7974 7.21105C10.992 7.38122 11.2296 7.49035 11.4823 7.5256C11.7351 7.56084 11.9923 7.52071 12.2236 7.40995C12.455 7.29916 12.6508 7.12239 12.788 6.90045C12.9253 6.67849 12.9981 6.42064 12.9981 6.15734C12.9981 6.13459 12.9981 6.11223 12.9967 6.08828ZM11.661 7.16438C11.4023 7.16438 11.1541 7.05824 10.9712 6.86932C10.7882 6.68038 10.6854 6.42416 10.6854 6.15698C10.6854 5.88979 10.7882 5.63354 10.9712 5.44463C11.1541 5.2557 11.4023 5.14956 11.661 5.14956C11.8117 5.14883 11.9603 5.18517 12.0947 5.25555C12.2226 5.32115 12.3351 5.41484 12.4243 5.53008C12.5387 5.67832 12.6103 5.85689 12.6307 6.04526C12.6512 6.23364 12.6198 6.42416 12.54 6.59488C12.4603 6.76562 12.3355 6.90967 12.18 7.0104C12.0245 7.11116 11.8446 7.16453 11.661 7.16438Z" fill="#131414"/>
<path d="M7.51555 14.015C7.41287 14.0881 7.31191 14.1643 7.21264 14.2436C7.1129 14.1629 7.01027 14.0872 6.90762 14.015C5.37041 12.9433 3.5565 12.7792 2.0849 12.9006C1.96198 12.9111 1.84023 12.9231 1.72372 12.9367C1.30112 12.9856 0.88136 13.0579 0.466253 13.1533C0.340426 13.1832 0.221588 13.2134 0.113585 13.2414L0.0585938 12.8718C0.167062 12.8434 0.28555 12.8135 0.411262 12.7851C0.844519 12.6867 1.28266 12.6128 1.72372 12.5638C1.84081 12.5489 1.96221 12.537 2.0849 12.5277C2.79898 12.471 3.591 12.4796 4.39617 12.6187C4.44814 12.6276 4.50022 12.6381 4.5523 12.6486L4.68524 12.6755C5.12538 12.767 5.5561 12.9014 5.97159 13.077C6.08297 13.1251 6.19564 13.1755 6.30551 13.2307C6.62212 13.3867 6.92538 13.5701 7.21206 13.7788C7.31469 13.8538 7.41581 13.9329 7.51555 14.015Z" fill="#131414"/>
<path d="M15.8528 12.5733C15.844 12.6717 15.8339 12.7688 15.8194 12.8658C15.8122 12.9299 15.8035 12.9941 15.7935 13.0582C15.7082 12.9612 15.5998 12.8403 15.4769 12.7016C14.8742 12.0255 13.9303 10.9508 13.5429 10.4519C13.4461 10.3265 13.3579 10.2638 13.2798 10.2638C13.1902 10.2638 13.0862 10.34 12.9763 10.4535C12.8664 10.5669 12.7509 10.7161 12.6367 10.8638C12.5051 11.034 12.3707 11.21 12.2218 11.3623C12.1669 11.4191 12.0004 11.5922 11.7897 11.5594C11.5424 11.522 11.4066 11.2579 11.2013 10.8594C10.9989 10.4654 10.72 9.92653 10.2329 9.42211C10.1375 9.32502 10.0262 9.28628 9.88337 9.30277C8.9886 9.40863 7.44638 11.4877 6.58922 12.7907C6.48367 12.9503 6.38825 13.0996 6.30588 13.231C6.26686 13.2937 6.23073 13.3533 6.19753 13.4086L5.99224 13.2762L5.89111 13.2105C5.90837 13.1807 5.93587 13.136 5.97197 13.0782C6.05005 12.9529 6.16713 12.7663 6.31602 12.5394C7.09802 11.3484 8.72995 9.06336 9.84283 8.93356C10.093 8.90361 10.317 8.98277 10.4876 9.16045C11.0151 9.70362 11.3071 10.2708 11.521 10.6856C11.628 10.8932 11.7754 11.1797 11.8434 11.1916C11.8434 11.1916 11.8795 11.1902 11.9677 11.1007C12.1006 10.9619 12.2292 10.7946 12.3536 10.6334C12.6471 10.2514 12.9245 9.89176 13.2786 9.89176H13.28C13.4724 9.89176 13.6574 10.0022 13.8265 10.2201C14.1561 10.6469 14.9279 11.529 15.5176 12.1946V12.1962C15.6388 12.3329 15.753 12.4599 15.8528 12.5733Z" fill="#131414"/>
<path d="M7.47919 13.1204L7.1709 12.9248C7.21901 12.8441 8.35928 10.9398 9.11089 10.4746L9.2973 10.7946C8.73491 11.1427 7.79376 12.5914 7.47919 13.1204Z" fill="#131414"/>
<path d="M8.59955 5.82239L8.5979 6.19555L10.0433 6.20233L10.0449 5.82914L8.59955 5.82239Z" fill="#131414"/>
<path d="M10.1453 6.64221L8.76978 7.10069L8.8808 7.45582L10.2563 6.99734L10.1453 6.64221Z" fill="#131414"/>
<path d="M8.94834 4.43823L8.77319 4.76465L10.0375 5.48799L10.2126 5.16157L8.94834 4.43823Z" fill="#131414"/>
<path d="M9.89929 3.51941L9.6189 3.75486L10.5309 4.91276L10.8112 4.67731L9.89929 3.51941Z" fill="#131414"/>
<path d="M11.307 3.00427L10.949 3.05556L11.1476 4.53387L11.5056 4.48258L11.307 3.00427Z" fill="#131414"/>
<path d="M12.2432 3L11.8855 4.44604L12.2356 4.5384L12.5934 3.09236L12.2432 3Z" fill="#131414"/>
<path d="M13.3867 3.50427L12.5349 4.71002L12.8269 4.92995L13.6787 3.7242L13.3867 3.50427Z" fill="#131414"/>
<path d="M14.6645 15.4165C14.4599 15.2606 14.2444 15.1204 14.0199 14.997C13.2584 14.5751 12.4106 14.3463 11.5465 14.3294C10.6825 14.3125 9.82694 14.5081 9.05052 14.9C7.40122 15.7343 6.21752 17.4044 6.01794 19.3716C6.005 19.4969 5.99626 19.6242 5.99194 19.7507C6.03681 19.7627 6.08154 19.7747 6.12641 19.7851C6.20015 19.8029 6.27531 19.8193 6.35044 19.8357C6.35336 19.7089 6.36059 19.5831 6.37212 19.4582C6.57158 17.3 8.03818 15.5195 9.99294 14.9194C10.7527 14.6856 11.5548 14.6385 12.3353 14.7818C13.1158 14.9251 13.8531 15.2549 14.4882 15.7448C14.585 15.8194 14.6804 15.8986 14.7715 15.9806C14.7989 15.9343 14.8264 15.8881 14.851 15.8403C14.8871 15.7777 14.9209 15.715 14.9522 15.6507C14.8597 15.5687 14.7628 15.4911 14.6645 15.4165Z" fill="#131414"/>
<path d="M13.5936 17.012C12.9748 16.5289 12.22 16.268 11.4442 16.2692C9.58105 16.2692 8.04746 17.7468 7.88259 19.6256C7.87156 19.7375 7.86627 19.85 7.86676 19.9624C7.86653 19.9745 7.86699 19.9866 7.86815 19.9986C7.89145 20 7.91592 20 7.93899 20C8.0358 20 8.13275 19.9986 8.22956 19.994C8.2284 19.9836 8.22792 19.9732 8.22817 19.9627C8.22817 19.8463 8.23388 19.7313 8.24401 19.6195C8.4112 17.9493 9.78342 16.6421 11.4442 16.6421C12.1281 16.6412 12.7943 16.8666 13.345 17.2854C13.4424 17.3587 13.5356 17.438 13.6239 17.5227C13.7078 17.4347 13.7901 17.3436 13.8696 17.2511C13.7816 17.1666 13.6895 17.0867 13.5936 17.012Z" fill="#131414"/>
<path d="M15.3353 13.5449C14.1541 12.7793 12.7857 12.3781 11.3912 12.3884C9.99665 12.3987 8.63398 12.8201 7.46355 13.6031C7.37828 13.6598 7.29439 13.7195 7.21202 13.7792C7.13536 13.8359 7.05882 13.8941 6.98505 13.9524L6.907 14.015C5.52662 15.1403 4.54668 16.7642 4.2229 18.6209C4.20122 18.7507 4.18243 18.882 4.1665 19.0149C4.19971 19.0343 4.23442 19.0522 4.26916 19.0717C4.34721 19.1149 4.42807 19.1568 4.50904 19.1955C4.52207 19.0657 4.53944 18.9343 4.56112 18.806C4.85017 16.9533 5.82733 15.3374 7.21202 14.2434C7.24523 14.218 7.27702 14.1926 7.31034 14.1672C7.37828 14.115 7.4462 14.0642 7.51551 14.015C7.59078 13.9628 7.66594 13.9106 7.74248 13.8613C8.86772 13.1318 10.1717 12.7502 11.5003 12.7616C12.8289 12.773 14.1265 13.1769 15.2399 13.9255C15.3468 13.9957 15.451 14.0699 15.5535 14.1479C15.571 14.0877 15.5885 14.03 15.6027 13.9703C15.6229 13.903 15.6403 13.8345 15.6561 13.7643C15.5507 13.6882 15.4452 13.615 15.3353 13.5449Z" fill="#131414"/>
<path d="M2.08481 10.2614V12.9007C1.96189 12.9111 1.84014 12.9232 1.72363 12.9368V10.2614H2.08481Z" fill="#131414"/>
<path d="M2.06054 6.88834L1.91013 6.60034L1.74702 6.88089C1.67711 7.00023 0.0485646 9.82565 0.704852 11.0614C0.892781 11.4167 1.23671 11.6091 1.72383 11.636C1.7441 11.6375 1.76437 11.639 1.78604 11.639C1.81063 11.6405 1.8337 11.6405 1.85688 11.6405C1.93316 11.6412 2.00942 11.6372 2.08524 11.6285C2.53333 11.5853 2.85569 11.4017 3.04503 11.0838C3.61871 10.1197 2.75865 8.22719 2.06054 6.88834ZM2.73734 10.8883C2.61303 11.0957 2.39946 11.2181 2.08489 11.2539C1.98842 11.2649 1.89133 11.2689 1.79432 11.2659C1.76973 11.2659 1.74667 11.2644 1.72348 11.2629C1.37524 11.2389 1.14537 11.1152 1.02245 10.8823C0.609084 10.1048 1.40413 8.2883 1.89556 7.36295C2.78754 9.14208 3.07088 10.3271 2.73734 10.8883Z" fill="#131414"/>
<path d="M4.68531 11.0973H4.39624V12.7987H4.68531V11.0973Z" fill="#131414"/>
<path d="M4.66653 9.0569L4.54653 8.82556L4.41486 9.04946C4.31 9.23148 3.39309 10.848 3.7891 11.5956C3.90479 11.8122 4.10857 11.9325 4.39622 11.9554C4.42008 11.9596 4.44424 11.9617 4.46845 11.9614H4.51179C4.56983 11.962 4.62785 11.958 4.68529 11.9493C4.94975 11.918 5.14059 11.803 5.25616 11.6106C5.61034 11.0151 5.08851 9.8674 4.66653 9.0569ZM5.00904 11.4539C4.94544 11.5584 4.83988 11.6256 4.68529 11.651C4.61593 11.6621 4.54569 11.6661 4.47557 11.663C4.44807 11.6615 4.42057 11.66 4.3961 11.6585C4.22263 11.6391 4.10694 11.5705 4.04332 11.4525C3.8103 11.0168 4.24139 10.0033 4.53486 9.43912C5.03935 10.4586 5.19988 11.1345 5.00904 11.4539Z" fill="#131414"/>
<path d="M12.7961 5.29756C12.7961 5.29756 12.436 5.0021 12.3015 4.9452C12.1669 4.8883 12.167 5.18688 12.167 5.18688L12.6006 5.33618L12.7961 5.29756Z" fill="#131414"/>
<path d="M11.661 7.27643C12.2597 7.27643 12.7451 6.77524 12.7451 6.15701C12.7451 5.53879 12.2597 5.0376 11.661 5.0376C11.0623 5.0376 10.5769 5.53879 10.5769 6.15701C10.5769 6.77524 11.0623 7.27643 11.661 7.27643Z" fill="#E07103"/>
</g>
<defs>
<clipPath id="clip0">
<rect width="16" height="17" fill="white" transform="translate(0 3)"/>
</clipPath>
</defs>
</svg>
