<svg width="22" height="23" viewBox="0 0 22 23" fill="none" xmlns="http://www.w3.org/2000/svg">
<path fill-rule="evenodd" clip-rule="evenodd" d="M11 0C9.18534 0.00569046 7.43254 0.660186 6.05825 1.84525C5.005 2.75275 4.24187 3.93525 4.04525 5.12187C1.74075 5.63062 0 7.63812 0 10.0623C0 12.8783 2.3485 15.125 5.19887 15.125H10.3125V7.5625C10.3125 7.38016 10.3849 7.2053 10.5139 7.07636C10.6428 6.94743 10.8177 6.875 11 6.875C11.1823 6.875 11.3572 6.94743 11.4861 7.07636C11.6151 7.2053 11.6875 7.38016 11.6875 7.5625V15.125H17.446C19.9403 15.125 22 13.1587 22 10.6879C22 8.43837 20.2922 6.6055 18.1033 6.29612C17.7691 2.74863 14.6988 0 11 0ZM10.5133 21.7992C10.5771 21.8633 10.653 21.9141 10.7365 21.9487C10.82 21.9834 10.9096 22.0012 11 22.0012C11.0904 22.0012 11.18 21.9834 11.2635 21.9487C11.347 21.9141 11.4229 21.8633 11.4867 21.7992L15.6117 17.6742C15.7408 17.5452 15.8134 17.3701 15.8134 17.1875C15.8134 17.0049 15.7408 16.8298 15.6117 16.7008C15.4827 16.5717 15.3076 16.4991 15.125 16.4991C14.9424 16.4991 14.7673 16.5717 14.6383 16.7008L11.6875 19.6529V15.125H10.3125V19.6529L7.36175 16.7008C7.23266 16.5717 7.05757 16.4991 6.875 16.4991C6.69243 16.4991 6.51734 16.5717 6.38825 16.7008C6.25916 16.8298 6.18663 17.0049 6.18663 17.1875C6.18663 17.3701 6.25916 17.5452 6.38825 17.6742L10.5133 21.7992Z" fill="black"/>
</svg>
