<svg width="22" height="23" viewBox="0 0 22 23" fill="none" xmlns="http://www.w3.org/2000/svg">
<path d="M10.7283 9.28509e-08C12.0021 9.28509e-08 13.0504 0.958333 13.1857 2.19048H15.125C15.7521 2.1904 16.3559 2.42737 16.8143 2.8535C17.2727 3.27963 17.5516 3.86314 17.5945 4.4861L17.6 4.65476V10.0477C17.0593 9.92078 16.5056 9.85682 15.95 9.85714V4.65476C15.95 4.45626 15.8778 4.26448 15.7468 4.11489C15.6157 3.96529 15.4347 3.868 15.2372 3.841L15.125 3.83333H12.7798C12.5538 4.16839 12.2484 4.44289 11.8907 4.63257C11.5329 4.82225 11.1337 4.92128 10.7283 4.9209H6.8717C6.017 4.9209 5.2646 4.49048 4.8202 3.83443L2.475 3.83333C2.27564 3.83334 2.08302 3.90523 1.93278 4.0357C1.78253 4.16617 1.68481 4.34639 1.6577 4.54305L1.65 4.65476V19.446C1.65 19.8621 1.9602 20.205 2.3628 20.2597L2.475 20.2674H9.6085C9.92378 20.8683 10.3234 21.4215 10.7954 21.9102H2.475C1.84786 21.9103 1.24408 21.6733 0.785671 21.2472C0.327266 20.8211 0.0484243 20.2376 0.00550014 19.6146L1.86986e-08 19.446V4.65476C-7.70241e-05 4.03034 0.237925 3.42917 0.665906 2.97275C1.09389 2.51633 1.67993 2.23869 2.3056 2.19595L2.475 2.19048H4.4143C4.4812 1.58817 4.76893 1.03162 5.22237 0.627433C5.67582 0.223243 6.26309 -0.000166275 6.8717 9.28509e-08H10.7283ZM10.7283 1.64286H6.8717C6.65912 1.65061 6.45784 1.74014 6.3102 1.89262C6.16256 2.0451 6.08006 2.24865 6.08006 2.46045C6.08006 2.67226 6.16256 2.8758 6.3102 3.02829C6.45784 3.18077 6.65912 3.2703 6.8717 3.27805H10.7283C10.8387 3.28207 10.9487 3.2639 11.0519 3.22462C11.155 3.18535 11.2492 3.12577 11.3287 3.04945C11.4082 2.97314 11.4714 2.88164 11.5146 2.78044C11.5578 2.67924 11.5801 2.57041 11.5801 2.46045C11.5801 2.35049 11.5578 2.24166 11.5146 2.14046C11.4714 2.03926 11.4082 1.94777 11.3287 1.87145C11.2492 1.79513 11.155 1.73556 11.0519 1.69628C10.9487 1.657 10.8387 1.63883 10.7283 1.64286Z" fill="black"/>
<path d="M5.7749 13.1374H9.9274C9.18915 14.2827 8.79773 15.6153 8.7999 16.9762C8.7999 17.3486 8.8285 17.7133 8.8835 18.0703H8.7999C6.0191 18.0703 4.3999 17.0748 4.3999 15.0519V14.5064C4.3999 13.7507 5.0159 13.1374 5.7749 13.1374Z" fill="black"/>
<path d="M8.80005 6.56708C9.52939 6.56708 10.2289 6.85556 10.7446 7.36905C11.2603 7.88254 11.55 8.57899 11.55 9.30517C11.55 10.0314 11.2603 10.7278 10.7446 11.2413C10.2289 11.7548 9.52939 12.0433 8.80005 12.0433C8.0707 12.0433 7.37123 11.7548 6.85551 11.2413C6.33978 10.7278 6.05005 10.0314 6.05005 9.30517C6.05005 8.57899 6.33978 7.88254 6.85551 7.36905C7.37123 6.85556 8.0707 6.56708 8.80005 6.56708Z" fill="black"/>
<path d="M21.9999 16.9762C21.9999 15.3786 21.3625 13.8464 20.2279 12.7167C19.0933 11.587 17.5545 10.9524 15.9499 10.9524C14.3453 10.9524 12.8065 11.587 11.6719 12.7167C10.5373 13.8464 9.8999 15.3786 9.8999 16.9762C9.8999 18.5738 10.5373 20.106 11.6719 21.2357C12.8065 22.3654 14.3453 23 15.9499 23C17.5545 23 19.0933 22.3654 20.2279 21.2357C21.3625 20.106 21.9999 18.5738 21.9999 16.9762ZM16.4999 17.5238L16.501 20.2652C16.501 20.4104 16.4431 20.5497 16.3399 20.6524C16.2368 20.7551 16.0969 20.8128 15.951 20.8128C15.8051 20.8128 15.6652 20.7551 15.5621 20.6524C15.4589 20.5497 15.401 20.4104 15.401 20.2652V17.5238H12.6455C12.4996 17.5238 12.3597 17.4661 12.2566 17.3634C12.1534 17.2607 12.0955 17.1214 12.0955 16.9762C12.0955 16.831 12.1534 16.6917 12.2566 16.589C12.3597 16.4863 12.4996 16.4286 12.6455 16.4286H15.3999V13.6905C15.3999 13.5453 15.4578 13.406 15.561 13.3033C15.6641 13.2006 15.804 13.1429 15.9499 13.1429C16.0958 13.1429 16.2357 13.2006 16.3388 13.3033C16.442 13.406 16.4999 13.5453 16.4999 13.6905V16.4286H19.2532C19.3991 16.4286 19.539 16.4863 19.6421 16.589C19.7453 16.6917 19.8032 16.831 19.8032 16.9762C19.8032 17.1214 19.7453 17.2607 19.6421 17.3634C19.539 17.4661 19.3991 17.5238 19.2532 17.5238H16.501H16.4999Z" fill="black"/>
</svg>
