<svg width="19" height="22" viewBox="0 0 19 22" fill="none" xmlns="http://www.w3.org/2000/svg">
<path d="M12.1181 8.001C12.5781 6.574 12.8111 5.325 12.8111 4.248C12.8111 1.849 11.8721 0 10.3111 0C9.46412 0 9.20212 0.505 8.87412 1.747C8.89112 1.682 8.71112 2.381 8.65912 2.568C8.55812 2.928 8.38212 3.538 8.13212 4.399C8.12533 4.42201 8.11523 4.4439 8.10212 4.464L5.23612 8.95C4.55795 10.0112 3.55726 10.8268 2.38112 11.277L1.12412 11.758C0.739717 11.9052 0.419508 12.1832 0.219788 12.5432C0.0200677 12.9031 -0.0463809 13.3219 0.0321233 13.726L0.718123 17.264C0.799961 17.6861 1.00103 18.0759 1.29753 18.3873C1.59402 18.6987 1.97353 18.9186 2.39112 19.021L10.6411 21.043C11.8572 21.3409 13.1417 21.1467 14.2153 20.5025C15.2889 19.8583 16.0648 18.8162 16.3741 17.603L17.9481 11.43C18.0516 11.024 18.0609 10.5997 17.9754 10.1896C17.8898 9.77944 17.7117 9.39426 17.4546 9.06345C17.1975 8.73264 16.8682 8.46495 16.4919 8.28082C16.1155 8.09669 15.7021 8.00098 15.2831 8.001H12.1181Z" fill="black"/>
</svg>
