<svg width="9" height="9" viewBox="0 0 9 9" fill="none" xmlns="http://www.w3.org/2000/svg">
<path fill-rule="evenodd" clip-rule="evenodd" d="M4.54294 0.702637C2.49674 0.702637 0.837891 2.36149 0.837891 4.40769C0.837891 6.45388 2.49674 8.11274 4.54294 8.11274C6.58914 8.11274 8.24799 6.45388 8.24799 4.40769C8.24799 2.36149 6.58914 0.702637 4.54294 0.702637ZM4.16974 3.37532C4.24721 3.22274 4.30447 3.15033 4.35196 3.1126C4.38766 3.08431 4.43617 3.0604 4.54294 3.0604C4.75345 3.0604 4.87976 3.2187 4.87976 3.38981C4.87976 3.48344 4.86157 3.52993 4.81172 3.58921C4.742 3.67207 4.613 3.77278 4.35769 3.94152L4.20612 4.04122V4.74451C4.20612 4.83384 4.2416 4.91951 4.30477 4.98268C4.36794 5.04584 4.45361 5.08133 4.54294 5.08133C4.63227 5.08133 4.71794 5.04584 4.78111 4.98268C4.84428 4.91951 4.87976 4.83384 4.87976 4.74451V4.40196C5.06232 4.27599 5.21557 4.15541 5.32673 4.02337C5.48739 3.83273 5.55341 3.62929 5.55341 3.38981C5.55341 2.89468 5.17179 2.38675 4.54294 2.38675C4.31255 2.38675 4.10878 2.44603 3.93396 2.58446C3.77094 2.71347 3.65979 2.89097 3.56885 3.07117C3.54772 3.11074 3.5347 3.15413 3.53056 3.19879C3.52642 3.24346 3.53125 3.2885 3.54476 3.33127C3.55826 3.37405 3.58017 3.41369 3.60921 3.44788C3.63824 3.48207 3.67382 3.51012 3.71384 3.53038C3.75386 3.55063 3.79752 3.56269 3.84227 3.56585C3.88701 3.569 3.93193 3.56319 3.9744 3.54874C4.01687 3.5343 4.05602 3.51152 4.08957 3.48174C4.12311 3.45196 4.15037 3.41578 4.16974 3.37532ZM4.87976 5.92339C4.87976 5.83406 4.84428 5.74838 4.78111 5.68522C4.71794 5.62205 4.63227 5.58657 4.54294 5.58657C4.45361 5.58657 4.36794 5.62205 4.30477 5.68522C4.2416 5.74838 4.20612 5.83406 4.20612 5.92339V6.0918C4.20612 6.18113 4.2416 6.2668 4.30477 6.32997C4.36794 6.39314 4.45361 6.42862 4.54294 6.42862C4.63227 6.42862 4.71794 6.39314 4.78111 6.32997C4.84428 6.2668 4.87976 6.18113 4.87976 6.0918V5.92339Z" fill="#6FCF97"/>
</svg>
