<svg width="22" height="23" viewBox="0 0 22 23" fill="none" xmlns="http://www.w3.org/2000/svg">
<path d="M4.04862 14.5959C5.05854 14.593 6.03025 14.2202 6.77012 13.5517L13.9982 17.568C13.756 18.4882 13.8628 19.4625 14.2989 20.3124C14.7351 21.1624 15.4715 21.8312 16.3732 22.1963C17.275 22.5615 18.2819 22.5986 19.2095 22.3009C20.1372 22.0031 20.9235 21.3905 21.4246 20.5751C21.9256 19.7597 22.1079 18.796 21.9381 17.8606C21.7682 16.9252 21.2576 16.0805 20.4997 15.4813C19.7417 14.882 18.7872 14.5683 17.8108 14.5974C16.8344 14.6266 15.9015 14.9968 15.1829 15.6401L7.95478 11.6239C8.03099 11.3432 8.07256 11.0524 8.07948 10.7616L15.1805 6.81501C15.8643 7.41994 16.7412 7.77781 17.6641 7.82857C18.587 7.87933 19.4998 7.61991 20.2494 7.09382C20.9989 6.56772 21.5396 5.80697 21.7807 4.93919C22.0218 4.07141 21.9487 3.14939 21.5736 2.32783C21.1985 1.50626 20.5443 0.835122 19.7206 0.427014C18.897 0.0189066 17.9541 -0.101345 17.0501 0.0864343C16.1461 0.274213 15.336 0.758598 14.7557 1.45833C14.1754 2.15805 13.8603 3.03055 13.8631 3.92944C13.8677 4.25281 13.9127 4.57505 13.9982 4.88718L7.43519 8.53288C7.0546 7.96032 6.52737 7.4939 5.90531 7.17944C5.28325 6.86497 4.58776 6.71329 3.88718 6.73928C3.18659 6.76527 2.50501 6.96805 1.9094 7.32769C1.31379 7.68733 0.824643 8.19146 0.490017 8.79055C0.155392 9.38964 -0.0131999 10.0631 0.000806743 10.7447C0.0148133 11.4263 0.210936 12.0927 0.569906 12.6783C0.928877 13.2639 1.43834 13.7486 2.04825 14.0848C2.65816 14.421 3.34753 14.5972 4.04862 14.5959Z" fill="black"/>
</svg>
